<?xml version="1.0" encoding="utf-8" standalone="no"?>
<!DOCTYPE svg PUBLIC "-//W3C//DTD SVG 1.1//EN"
  "http://www.w3.org/Graphics/SVG/1.1/DTD/svg11.dtd">
<svg xmlns:xlink="http://www.w3.org/1999/xlink" width="764.39952pt" height="331.99176pt" viewBox="0 0 764.39952 331.99176" xmlns="http://www.w3.org/2000/svg" version="1.1">
 <metadata>
  <rdf:RDF xmlns:dc="http://purl.org/dc/elements/1.1/" xmlns:cc="http://creativecommons.org/ns#" xmlns:rdf="http://www.w3.org/1999/02/22-rdf-syntax-ns#">
   <cc:Work>
    <dc:type rdf:resource="http://purl.org/dc/dcmitype/StillImage"/>
    <dc:date>2026-05-12T09:46:28.941033</dc:date>
    <dc:format>image/svg+xml</dc:format>
    <dc:creator>
     <cc:Agent>
      <dc:title>Matplotlib v3.10.8, https://matplotlib.org/</dc:title>
     </cc:Agent>
    </dc:creator>
   </cc:Work>
  </rdf:RDF>
 </metadata>
 <defs>
  <style type="text/css">*{stroke-linejoin: round; stroke-linecap: butt}</style>
 </defs>
 <g id="figure_1">
  <g id="patch_1">
   <path d="M 0 331.99176 
L 764.39952 331.99176 
L 764.39952 0 
L 0 0 
z
" style="fill: #ffffff"/>
  </g>
  <g id="axes_1">
   <g id="patch_2">
    <path d="M 60.459063 292.499885 
L 372.05726 292.499885 
L 372.05726 47.309584 
L 60.459063 47.309584 
z
" style="fill: #ffffff"/>
   </g>
   <g id="matplotlib.axis_1">
    <g id="xtick_1">
     <g id="line2d_1">
      <path d="M 60.459063 292.499885 
L 60.459063 47.309584 
" clip-path="url(#pc0c7cec8ef)" style="fill: none; stroke: #b0b0b0; stroke-opacity: 0.25; stroke-width: 0.8; stroke-linecap: square"/>
     </g>
     <g id="line2d_2">
      <defs>
       <path id="mcb7d51ba85" d="M 0 0 
L 0 3.5 
" style="stroke: #000000; stroke-width: 0.8"/>
      </defs>
      <g>
       <use xlink:href="#mcb7d51ba85" x="60.459063" y="292.499885" style="stroke: #000000; stroke-width: 0.8"/>
      </g>
     </g>
     <g id="text_1">
      <!-- 0 -->
      <g transform="translate(57.277813 307.098322) scale(0.1 -0.1)">
       <defs>
        <path id="DejaVuSans-30" d="M 2034 4250 
Q 1547 4250 1301 3770 
Q 1056 3291 1056 2328 
Q 1056 1369 1301 889 
Q 1547 409 2034 409 
Q 2525 409 2770 889 
Q 3016 1369 3016 2328 
Q 3016 3291 2770 3770 
Q 2525 4250 2034 4250 
z
M 2034 4750 
Q 2819 4750 3233 4129 
Q 3647 3509 3647 2328 
Q 3647 1150 3233 529 
Q 2819 -91 2034 -91 
Q 1250 -91 836 529 
Q 422 1150 422 2328 
Q 422 3509 836 4129 
Q 1250 4750 2034 4750 
z
" transform="scale(0.015625)"/>
       </defs>
       <use xlink:href="#DejaVuSans-30"/>
      </g>
     </g>
    </g>
    <g id="xtick_2">
     <g id="line2d_3">
      <path d="M 112.392095 292.499885 
L 112.392095 47.309584 
" clip-path="url(#pc0c7cec8ef)" style="fill: none; stroke: #b0b0b0; stroke-opacity: 0.25; stroke-width: 0.8; stroke-linecap: square"/>
     </g>
     <g id="line2d_4">
      <g>
       <use xlink:href="#mcb7d51ba85" x="112.392095" y="292.499885" style="stroke: #000000; stroke-width: 0.8"/>
      </g>
     </g>
     <g id="text_2">
      <!-- 2 -->
      <g transform="translate(109.210845 307.098322) scale(0.1 -0.1)">
       <defs>
        <path id="DejaVuSans-32" d="M 1228 531 
L 3431 531 
L 3431 0 
L 469 0 
L 469 531 
Q 828 903 1448 1529 
Q 2069 2156 2228 2338 
Q 2531 2678 2651 2914 
Q 2772 3150 2772 3378 
Q 2772 3750 2511 3984 
Q 2250 4219 1831 4219 
Q 1534 4219 1204 4116 
Q 875 4013 500 3803 
L 500 4441 
Q 881 4594 1212 4672 
Q 1544 4750 1819 4750 
Q 2544 4750 2975 4387 
Q 3406 4025 3406 3419 
Q 3406 3131 3298 2873 
Q 3191 2616 2906 2266 
Q 2828 2175 2409 1742 
Q 1991 1309 1228 531 
z
" transform="scale(0.015625)"/>
       </defs>
       <use xlink:href="#DejaVuSans-32"/>
      </g>
     </g>
    </g>
    <g id="xtick_3">
     <g id="line2d_5">
      <path d="M 164.325128 292.499885 
L 164.325128 47.309584 
" clip-path="url(#pc0c7cec8ef)" style="fill: none; stroke: #b0b0b0; stroke-opacity: 0.25; stroke-width: 0.8; stroke-linecap: square"/>
     </g>
     <g id="line2d_6">
      <g>
       <use xlink:href="#mcb7d51ba85" x="164.325128" y="292.499885" style="stroke: #000000; stroke-width: 0.8"/>
      </g>
     </g>
     <g id="text_3">
      <!-- 4 -->
      <g transform="translate(161.143878 307.098322) scale(0.1 -0.1)">
       <defs>
        <path id="DejaVuSans-34" d="M 2419 4116 
L 825 1625 
L 2419 1625 
L 2419 4116 
z
M 2253 4666 
L 3047 4666 
L 3047 1625 
L 3713 1625 
L 3713 1100 
L 3047 1100 
L 3047 0 
L 2419 0 
L 2419 1100 
L 313 1100 
L 313 1709 
L 2253 4666 
z
" transform="scale(0.015625)"/>
       </defs>
       <use xlink:href="#DejaVuSans-34"/>
      </g>
     </g>
    </g>
    <g id="xtick_4">
     <g id="line2d_7">
      <path d="M 216.258161 292.499885 
L 216.258161 47.309584 
" clip-path="url(#pc0c7cec8ef)" style="fill: none; stroke: #b0b0b0; stroke-opacity: 0.25; stroke-width: 0.8; stroke-linecap: square"/>
     </g>
     <g id="line2d_8">
      <g>
       <use xlink:href="#mcb7d51ba85" x="216.258161" y="292.499885" style="stroke: #000000; stroke-width: 0.8"/>
      </g>
     </g>
     <g id="text_4">
      <!-- 6 -->
      <g transform="translate(213.076911 307.098322) scale(0.1 -0.1)">
       <defs>
        <path id="DejaVuSans-36" d="M 2113 2584 
Q 1688 2584 1439 2293 
Q 1191 2003 1191 1497 
Q 1191 994 1439 701 
Q 1688 409 2113 409 
Q 2538 409 2786 701 
Q 3034 994 3034 1497 
Q 3034 2003 2786 2293 
Q 2538 2584 2113 2584 
z
M 3366 4563 
L 3366 3988 
Q 3128 4100 2886 4159 
Q 2644 4219 2406 4219 
Q 1781 4219 1451 3797 
Q 1122 3375 1075 2522 
Q 1259 2794 1537 2939 
Q 1816 3084 2150 3084 
Q 2853 3084 3261 2657 
Q 3669 2231 3669 1497 
Q 3669 778 3244 343 
Q 2819 -91 2113 -91 
Q 1303 -91 875 529 
Q 447 1150 447 2328 
Q 447 3434 972 4092 
Q 1497 4750 2381 4750 
Q 2619 4750 2861 4703 
Q 3103 4656 3366 4563 
z
" transform="scale(0.015625)"/>
       </defs>
       <use xlink:href="#DejaVuSans-36"/>
      </g>
     </g>
    </g>
    <g id="xtick_5">
     <g id="line2d_9">
      <path d="M 268.191194 292.499885 
L 268.191194 47.309584 
" clip-path="url(#pc0c7cec8ef)" style="fill: none; stroke: #b0b0b0; stroke-opacity: 0.25; stroke-width: 0.8; stroke-linecap: square"/>
     </g>
     <g id="line2d_10">
      <g>
       <use xlink:href="#mcb7d51ba85" x="268.191194" y="292.499885" style="stroke: #000000; stroke-width: 0.8"/>
      </g>
     </g>
     <g id="text_5">
      <!-- 8 -->
      <g transform="translate(265.009944 307.098322) scale(0.1 -0.1)">
       <defs>
        <path id="DejaVuSans-38" d="M 2034 2216 
Q 1584 2216 1326 1975 
Q 1069 1734 1069 1313 
Q 1069 891 1326 650 
Q 1584 409 2034 409 
Q 2484 409 2743 651 
Q 3003 894 3003 1313 
Q 3003 1734 2745 1975 
Q 2488 2216 2034 2216 
z
M 1403 2484 
Q 997 2584 770 2862 
Q 544 3141 544 3541 
Q 544 4100 942 4425 
Q 1341 4750 2034 4750 
Q 2731 4750 3128 4425 
Q 3525 4100 3525 3541 
Q 3525 3141 3298 2862 
Q 3072 2584 2669 2484 
Q 3125 2378 3379 2068 
Q 3634 1759 3634 1313 
Q 3634 634 3220 271 
Q 2806 -91 2034 -91 
Q 1263 -91 848 271 
Q 434 634 434 1313 
Q 434 1759 690 2068 
Q 947 2378 1403 2484 
z
M 1172 3481 
Q 1172 3119 1398 2916 
Q 1625 2713 2034 2713 
Q 2441 2713 2670 2916 
Q 2900 3119 2900 3481 
Q 2900 3844 2670 4047 
Q 2441 4250 2034 4250 
Q 1625 4250 1398 4047 
Q 1172 3844 1172 3481 
z
" transform="scale(0.015625)"/>
       </defs>
       <use xlink:href="#DejaVuSans-38"/>
      </g>
     </g>
    </g>
    <g id="xtick_6">
     <g id="line2d_11">
      <path d="M 320.124227 292.499885 
L 320.124227 47.309584 
" clip-path="url(#pc0c7cec8ef)" style="fill: none; stroke: #b0b0b0; stroke-opacity: 0.25; stroke-width: 0.8; stroke-linecap: square"/>
     </g>
     <g id="line2d_12">
      <g>
       <use xlink:href="#mcb7d51ba85" x="320.124227" y="292.499885" style="stroke: #000000; stroke-width: 0.8"/>
      </g>
     </g>
     <g id="text_6">
      <!-- 10 -->
      <g transform="translate(313.761727 307.098322) scale(0.1 -0.1)">
       <defs>
        <path id="DejaVuSans-31" d="M 794 531 
L 1825 531 
L 1825 4091 
L 703 3866 
L 703 4441 
L 1819 4666 
L 2450 4666 
L 2450 531 
L 3481 531 
L 3481 0 
L 794 0 
L 794 531 
z
" transform="scale(0.015625)"/>
       </defs>
       <use xlink:href="#DejaVuSans-31"/>
       <use xlink:href="#DejaVuSans-30" transform="translate(63.623047 0)"/>
      </g>
     </g>
    </g>
    <g id="xtick_7">
     <g id="line2d_13">
      <path d="M 372.05726 292.499885 
L 372.05726 47.309584 
" clip-path="url(#pc0c7cec8ef)" style="fill: none; stroke: #b0b0b0; stroke-opacity: 0.25; stroke-width: 0.8; stroke-linecap: square"/>
     </g>
     <g id="line2d_14">
      <g>
       <use xlink:href="#mcb7d51ba85" x="372.05726" y="292.499885" style="stroke: #000000; stroke-width: 0.8"/>
      </g>
     </g>
     <g id="text_7">
      <!-- 12 -->
      <g transform="translate(365.69476 307.098322) scale(0.1 -0.1)">
       <use xlink:href="#DejaVuSans-31"/>
       <use xlink:href="#DejaVuSans-32" transform="translate(63.623047 0)"/>
      </g>
     </g>
    </g>
    <g id="text_8">
     <!-- t / k -->
     <g transform="translate(204.596599 322.296135) scale(0.12 -0.12)">
      <defs>
       <path id="DejaVuSans-74" d="M 1172 4494 
L 1172 3500 
L 2356 3500 
L 2356 3053 
L 1172 3053 
L 1172 1153 
Q 1172 725 1289 603 
Q 1406 481 1766 481 
L 2356 481 
L 2356 0 
L 1766 0 
Q 1100 0 847 248 
Q 594 497 594 1153 
L 594 3053 
L 172 3053 
L 172 3500 
L 594 3500 
L 594 4494 
L 1172 4494 
z
" transform="scale(0.015625)"/>
       <path id="DejaVuSans-20" transform="scale(0.015625)"/>
       <path id="DejaVuSans-2f" d="M 1625 4666 
L 2156 4666 
L 531 -594 
L 0 -594 
L 1625 4666 
z
" transform="scale(0.015625)"/>
       <path id="DejaVuSans-6b" d="M 581 4863 
L 1159 4863 
L 1159 1991 
L 2875 3500 
L 3609 3500 
L 1753 1863 
L 3688 0 
L 2938 0 
L 1159 1709 
L 1159 0 
L 581 0 
L 581 4863 
z
" transform="scale(0.015625)"/>
      </defs>
      <use xlink:href="#DejaVuSans-74"/>
      <use xlink:href="#DejaVuSans-20" transform="translate(39.208984 0)"/>
      <use xlink:href="#DejaVuSans-2f" transform="translate(70.996094 0)"/>
      <use xlink:href="#DejaVuSans-20" transform="translate(104.6875 0)"/>
      <use xlink:href="#DejaVuSans-6b" transform="translate(136.474609 0)"/>
     </g>
    </g>
   </g>
   <g id="matplotlib.axis_2">
    <g id="ytick_1">
     <g id="line2d_15">
      <path d="M 60.459063 275.163197 
L 372.05726 275.163197 
" clip-path="url(#pc0c7cec8ef)" style="fill: none; stroke: #b0b0b0; stroke-opacity: 0.25; stroke-width: 0.8; stroke-linecap: square"/>
     </g>
     <g id="line2d_16">
      <defs>
       <path id="mf114ef7a4b" d="M 0 0 
L -3.5 0 
" style="stroke: #000000; stroke-width: 0.8"/>
      </defs>
      <g>
       <use xlink:href="#mf114ef7a4b" x="60.459063" y="275.163197" style="stroke: #000000; stroke-width: 0.8"/>
      </g>
     </g>
     <g id="text_9">
      <!-- −0.75 -->
      <g transform="translate(22.81375 278.962416) scale(0.1 -0.1)">
       <defs>
        <path id="DejaVuSans-2212" d="M 678 2272 
L 4684 2272 
L 4684 1741 
L 678 1741 
L 678 2272 
z
" transform="scale(0.015625)"/>
        <path id="DejaVuSans-2e" d="M 684 794 
L 1344 794 
L 1344 0 
L 684 0 
L 684 794 
z
" transform="scale(0.015625)"/>
        <path id="DejaVuSans-37" d="M 525 4666 
L 3525 4666 
L 3525 4397 
L 1831 0 
L 1172 0 
L 2766 4134 
L 525 4134 
L 525 4666 
z
" transform="scale(0.015625)"/>
        <path id="DejaVuSans-35" d="M 691 4666 
L 3169 4666 
L 3169 4134 
L 1269 4134 
L 1269 2991 
Q 1406 3038 1543 3061 
Q 1681 3084 1819 3084 
Q 2600 3084 3056 2656 
Q 3513 2228 3513 1497 
Q 3513 744 3044 326 
Q 2575 -91 1722 -91 
Q 1428 -91 1123 -41 
Q 819 9 494 109 
L 494 744 
Q 775 591 1075 516 
Q 1375 441 1709 441 
Q 2250 441 2565 725 
Q 2881 1009 2881 1497 
Q 2881 1984 2565 2268 
Q 2250 2553 1709 2553 
Q 1456 2553 1204 2497 
Q 953 2441 691 2322 
L 691 4666 
z
" transform="scale(0.015625)"/>
       </defs>
       <use xlink:href="#DejaVuSans-2212"/>
       <use xlink:href="#DejaVuSans-30" transform="translate(83.789062 0)"/>
       <use xlink:href="#DejaVuSans-2e" transform="translate(147.412109 0)"/>
       <use xlink:href="#DejaVuSans-37" transform="translate(179.199219 0)"/>
       <use xlink:href="#DejaVuSans-35" transform="translate(242.822266 0)"/>
      </g>
     </g>
    </g>
    <g id="ytick_2">
     <g id="line2d_17">
      <path d="M 60.459063 244.204826 
L 372.05726 244.204826 
" clip-path="url(#pc0c7cec8ef)" style="fill: none; stroke: #b0b0b0; stroke-opacity: 0.25; stroke-width: 0.8; stroke-linecap: square"/>
     </g>
     <g id="line2d_18">
      <g>
       <use xlink:href="#mf114ef7a4b" x="60.459063" y="244.204826" style="stroke: #000000; stroke-width: 0.8"/>
      </g>
     </g>
     <g id="text_10">
      <!-- −0.50 -->
      <g transform="translate(22.81375 248.004044) scale(0.1 -0.1)">
       <use xlink:href="#DejaVuSans-2212"/>
       <use xlink:href="#DejaVuSans-30" transform="translate(83.789062 0)"/>
       <use xlink:href="#DejaVuSans-2e" transform="translate(147.412109 0)"/>
       <use xlink:href="#DejaVuSans-35" transform="translate(179.199219 0)"/>
       <use xlink:href="#DejaVuSans-30" transform="translate(242.822266 0)"/>
      </g>
     </g>
    </g>
    <g id="ytick_3">
     <g id="line2d_19">
      <path d="M 60.459063 213.246454 
L 372.05726 213.246454 
" clip-path="url(#pc0c7cec8ef)" style="fill: none; stroke: #b0b0b0; stroke-opacity: 0.25; stroke-width: 0.8; stroke-linecap: square"/>
     </g>
     <g id="line2d_20">
      <g>
       <use xlink:href="#mf114ef7a4b" x="60.459063" y="213.246454" style="stroke: #000000; stroke-width: 0.8"/>
      </g>
     </g>
     <g id="text_11">
      <!-- −0.25 -->
      <g transform="translate(22.81375 217.045673) scale(0.1 -0.1)">
       <use xlink:href="#DejaVuSans-2212"/>
       <use xlink:href="#DejaVuSans-30" transform="translate(83.789062 0)"/>
       <use xlink:href="#DejaVuSans-2e" transform="translate(147.412109 0)"/>
       <use xlink:href="#DejaVuSans-32" transform="translate(179.199219 0)"/>
       <use xlink:href="#DejaVuSans-35" transform="translate(242.822266 0)"/>
      </g>
     </g>
    </g>
    <g id="ytick_4">
     <g id="line2d_21">
      <path d="M 60.459063 182.288083 
L 372.05726 182.288083 
" clip-path="url(#pc0c7cec8ef)" style="fill: none; stroke: #b0b0b0; stroke-opacity: 0.25; stroke-width: 0.8; stroke-linecap: square"/>
     </g>
     <g id="line2d_22">
      <g>
       <use xlink:href="#mf114ef7a4b" x="60.459063" y="182.288083" style="stroke: #000000; stroke-width: 0.8"/>
      </g>
     </g>
     <g id="text_12">
      <!-- 0.00 -->
      <g transform="translate(31.193438 186.087302) scale(0.1 -0.1)">
       <use xlink:href="#DejaVuSans-30"/>
       <use xlink:href="#DejaVuSans-2e" transform="translate(63.623047 0)"/>
       <use xlink:href="#DejaVuSans-30" transform="translate(95.410156 0)"/>
       <use xlink:href="#DejaVuSans-30" transform="translate(159.033203 0)"/>
      </g>
     </g>
    </g>
    <g id="ytick_5">
     <g id="line2d_23">
      <path d="M 60.459063 151.329712 
L 372.05726 151.329712 
" clip-path="url(#pc0c7cec8ef)" style="fill: none; stroke: #b0b0b0; stroke-opacity: 0.25; stroke-width: 0.8; stroke-linecap: square"/>
     </g>
     <g id="line2d_24">
      <g>
       <use xlink:href="#mf114ef7a4b" x="60.459063" y="151.329712" style="stroke: #000000; stroke-width: 0.8"/>
      </g>
     </g>
     <g id="text_13">
      <!-- 0.25 -->
      <g transform="translate(31.193438 155.12893) scale(0.1 -0.1)">
       <use xlink:href="#DejaVuSans-30"/>
       <use xlink:href="#DejaVuSans-2e" transform="translate(63.623047 0)"/>
       <use xlink:href="#DejaVuSans-32" transform="translate(95.410156 0)"/>
       <use xlink:href="#DejaVuSans-35" transform="translate(159.033203 0)"/>
      </g>
     </g>
    </g>
    <g id="ytick_6">
     <g id="line2d_25">
      <path d="M 60.459063 120.37134 
L 372.05726 120.37134 
" clip-path="url(#pc0c7cec8ef)" style="fill: none; stroke: #b0b0b0; stroke-opacity: 0.25; stroke-width: 0.8; stroke-linecap: square"/>
     </g>
     <g id="line2d_26">
      <g>
       <use xlink:href="#mf114ef7a4b" x="60.459063" y="120.37134" style="stroke: #000000; stroke-width: 0.8"/>
      </g>
     </g>
     <g id="text_14">
      <!-- 0.50 -->
      <g transform="translate(31.193438 124.170559) scale(0.1 -0.1)">
       <use xlink:href="#DejaVuSans-30"/>
       <use xlink:href="#DejaVuSans-2e" transform="translate(63.623047 0)"/>
       <use xlink:href="#DejaVuSans-35" transform="translate(95.410156 0)"/>
       <use xlink:href="#DejaVuSans-30" transform="translate(159.033203 0)"/>
      </g>
     </g>
    </g>
    <g id="ytick_7">
     <g id="line2d_27">
      <path d="M 60.459063 89.412969 
L 372.05726 89.412969 
" clip-path="url(#pc0c7cec8ef)" style="fill: none; stroke: #b0b0b0; stroke-opacity: 0.25; stroke-width: 0.8; stroke-linecap: square"/>
     </g>
     <g id="line2d_28">
      <g>
       <use xlink:href="#mf114ef7a4b" x="60.459063" y="89.412969" style="stroke: #000000; stroke-width: 0.8"/>
      </g>
     </g>
     <g id="text_15">
      <!-- 0.75 -->
      <g transform="translate(31.193438 93.212188) scale(0.1 -0.1)">
       <use xlink:href="#DejaVuSans-30"/>
       <use xlink:href="#DejaVuSans-2e" transform="translate(63.623047 0)"/>
       <use xlink:href="#DejaVuSans-37" transform="translate(95.410156 0)"/>
       <use xlink:href="#DejaVuSans-35" transform="translate(159.033203 0)"/>
      </g>
     </g>
    </g>
    <g id="ytick_8">
     <g id="line2d_29">
      <path d="M 60.459063 58.454597 
L 372.05726 58.454597 
" clip-path="url(#pc0c7cec8ef)" style="fill: none; stroke: #b0b0b0; stroke-opacity: 0.25; stroke-width: 0.8; stroke-linecap: square"/>
     </g>
     <g id="line2d_30">
      <g>
       <use xlink:href="#mf114ef7a4b" x="60.459063" y="58.454597" style="stroke: #000000; stroke-width: 0.8"/>
      </g>
     </g>
     <g id="text_16">
      <!-- 1.00 -->
      <g transform="translate(31.193438 62.253816) scale(0.1 -0.1)">
       <use xlink:href="#DejaVuSans-31"/>
       <use xlink:href="#DejaVuSans-2e" transform="translate(63.623047 0)"/>
       <use xlink:href="#DejaVuSans-30" transform="translate(95.410156 0)"/>
       <use xlink:href="#DejaVuSans-30" transform="translate(159.033203 0)"/>
      </g>
     </g>
    </g>
    <g id="text_17">
     <!-- u -->
     <g transform="translate(16.318125 173.707234) rotate(-90) scale(0.12 -0.12)">
      <defs>
       <path id="DejaVuSans-75" d="M 544 1381 
L 544 3500 
L 1119 3500 
L 1119 1403 
Q 1119 906 1312 657 
Q 1506 409 1894 409 
Q 2359 409 2629 706 
Q 2900 1003 2900 1516 
L 2900 3500 
L 3475 3500 
L 3475 0 
L 2900 0 
L 2900 538 
Q 2691 219 2414 64 
Q 2138 -91 1772 -91 
Q 1169 -91 856 284 
Q 544 659 544 1381 
z
M 1991 3584 
L 1991 3584 
z
" transform="scale(0.015625)"/>
      </defs>
      <use xlink:href="#DejaVuSans-75"/>
     </g>
    </g>
   </g>
   <g id="line2d_31">
    <path d="M 60.459063 292.499885 
L 60.459063 47.309584 
" clip-path="url(#pc0c7cec8ef)" style="fill: none; stroke-dasharray: 3.7,1.6; stroke-dashoffset: 0; stroke: #4c4c4c; stroke-opacity: 0.95"/>
   </g>
   <g id="line2d_32">
    <path d="M 164.325128 292.499885 
L 164.325128 47.309584 
" clip-path="url(#pc0c7cec8ef)" style="fill: none; stroke-dasharray: 3.7,1.6; stroke-dashoffset: 0; stroke: #4c4c4c; stroke-opacity: 0.95"/>
   </g>
   <g id="line2d_33">
    <path d="M 268.191194 292.499885 
L 268.191194 47.309584 
" clip-path="url(#pc0c7cec8ef)" style="fill: none; stroke-dasharray: 3.7,1.6; stroke-dashoffset: 0; stroke: #4c4c4c; stroke-opacity: 0.95"/>
   </g>
   <g id="line2d_34">
    <path d="M 372.05726 292.499885 
L 372.05726 47.309584 
" clip-path="url(#pc0c7cec8ef)" style="fill: none; stroke-dasharray: 3.7,1.6; stroke-dashoffset: 0; stroke: #4c4c4c; stroke-opacity: 0.95"/>
   </g>
   <g id="line2d_35">
    <path d="M 60.459063 182.288083 
L 62.954343 174.626614 
L 65.449624 167.690091 
L 67.944905 161.453019 
L 70.128276 156.549303 
L 72.311647 152.1445 
L 74.495017 148.221528 
L 76.678388 144.763307 
L 78.861759 141.752753 
L 80.733219 139.515638 
L 82.60468 137.584116 
L 84.476141 135.94743 
L 86.347601 134.594822 
L 88.219062 133.515537 
L 90.090523 132.698817 
L 91.961983 132.133905 
L 93.833444 131.810044 
L 95.704905 131.716479 
L 97.576365 131.842451 
L 99.447826 132.177204 
L 101.631197 132.817274 
L 103.814567 133.709796 
L 105.997938 134.837687 
L 108.493219 136.393001 
L 110.9885 138.207929 
L 113.795691 140.528294 
L 116.914792 143.409837 
L 120.345803 146.890835 
L 124.400635 151.337155 
L 129.703106 157.521386 
L 144.674792 175.225225 
L 148.729623 179.568255 
L 152.160634 182.934961 
L 155.279735 185.691211 
L 158.086926 187.881394 
L 160.582207 189.56675 
L 163.077488 190.979455 
L 165.260859 191.972211 
L 167.444229 192.731669 
L 169.6276 193.26616 
L 171.810971 193.584828 
L 173.994342 193.696816 
L 176.489623 193.583458 
L 178.984903 193.225747 
L 181.480184 192.637332 
L 183.975465 191.831864 
L 186.782656 190.683264 
L 189.589847 189.296668 
L 192.708948 187.500514 
L 196.139959 185.244914 
L 199.882881 182.490388 
L 203.937712 179.212261 
L 208.616364 175.124446 
L 214.230746 169.908613 
L 224.523779 159.9602 
L 232.009622 152.867094 
L 237.312094 148.144397 
L 241.678835 144.548971 
L 245.421756 141.73804 
L 248.852767 139.422592 
L 251.971869 137.565269 
L 255.09097 135.971335 
L 257.898161 134.784026 
L 260.705352 133.851092 
L 263.200632 133.251079 
L 265.695913 132.881061 
L 268.191194 132.754689 
L 270.686475 132.880418 
L 273.181756 133.245928 
L 275.677037 133.833707 
L 278.484228 134.738832 
L 281.291419 135.878163 
L 284.41052 137.388443 
L 287.841531 139.307329 
L 291.584452 141.65649 
L 295.951194 144.657796 
L 301.877486 149.019064 
L 314.6658 158.522619 
L 319.344452 161.671913 
L 323.087373 163.939378 
L 326.518384 165.766322 
L 329.637485 167.178862 
L 332.444676 168.218702 
L 335.251867 169.013415 
L 337.747148 169.493882 
L 340.242429 169.743454 
L 342.4258 169.758654 
L 344.609171 169.571932 
L 346.792541 169.171556 
L 348.975912 168.545794 
L 351.159283 167.682911 
L 353.342654 166.571176 
L 355.526024 165.198855 
L 357.709395 163.554216 
L 359.892766 161.625527 
L 362.076137 159.401054 
L 364.259507 156.869065 
L 366.442878 154.017827 
L 368.626249 150.835607 
L 371.12153 146.77845 
L 372.05726 145.138037 
L 372.05726 145.138037 
" clip-path="url(#pc0c7cec8ef)" style="fill: none; stroke: #1f77b4; stroke-width: 2; stroke-linecap: square"/>
   </g>
   <g id="patch_3">
    <path d="M 60.459063 292.499885 
L 60.459063 47.309584 
" style="fill: none; stroke: #000000; stroke-width: 0.8; stroke-linejoin: miter; stroke-linecap: square"/>
   </g>
   <g id="patch_4">
    <path d="M 372.05726 292.499885 
L 372.05726 47.309584 
" style="fill: none; stroke: #000000; stroke-width: 0.8; stroke-linejoin: miter; stroke-linecap: square"/>
   </g>
   <g id="patch_5">
    <path d="M 60.459063 292.499885 
L 372.05726 292.499885 
" style="fill: none; stroke: #000000; stroke-width: 0.8; stroke-linejoin: miter; stroke-linecap: square"/>
   </g>
   <g id="patch_6">
    <path d="M 60.459063 47.309584 
L 372.05726 47.309584 
" style="fill: none; stroke: #000000; stroke-width: 0.8; stroke-linejoin: miter; stroke-linecap: square"/>
   </g>
   <g id="PathCollection_1">
    <defs>
     <path id="me988ca7a32" d="M 0 2.645751 
C 0.701661 2.645751 1.374679 2.366978 1.870829 1.870829 
C 2.366978 1.374679 2.645751 0.701661 2.645751 0 
C 2.645751 -0.701661 2.366978 -1.374679 1.870829 -1.870829 
C 1.374679 -2.366978 0.701661 -2.645751 0 -2.645751 
C -0.701661 -2.645751 -1.374679 -2.366978 -1.870829 -1.870829 
C -2.366978 -1.374679 -2.645751 -0.701661 -2.645751 0 
C -2.645751 0.701661 -2.366978 1.374679 -1.870829 1.870829 
C -1.374679 2.366978 -0.701661 2.645751 0 2.645751 
z
" style="stroke: #d62728"/>
    </defs>
    <g clip-path="url(#pc0c7cec8ef)">
     <use xlink:href="#me988ca7a32" x="60.459063" y="182.288083" style="fill: #d62728; stroke: #d62728"/>
     <use xlink:href="#me988ca7a32" x="86.425579" y="134.54447" style="fill: #d62728; stroke: #d62728"/>
     <use xlink:href="#me988ca7a32" x="112.392095" y="139.333343" style="fill: #d62728; stroke: #d62728"/>
     <use xlink:href="#me988ca7a32" x="138.358612" y="167.921464" style="fill: #d62728; stroke: #d62728"/>
     <use xlink:href="#me988ca7a32" x="164.325128" y="191.575594" style="fill: #d62728; stroke: #d62728"/>
     <use xlink:href="#me988ca7a32" x="190.291645" y="188.915109" style="fill: #d62728; stroke: #d62728"/>
     <use xlink:href="#me988ca7a32" x="216.258161" y="167.969836" style="fill: #d62728; stroke: #d62728"/>
     <use xlink:href="#me988ca7a32" x="242.224678" y="144.122216" style="fill: #d62728; stroke: #d62728"/>
     <use xlink:href="#me988ca7a32" x="268.191194" y="132.754689" style="fill: #d62728; stroke: #d62728"/>
     <use xlink:href="#me988ca7a32" x="294.157711" y="143.396629" style="fill: #d62728; stroke: #d62728"/>
     <use xlink:href="#me988ca7a32" x="320.124227" y="162.165142" style="fill: #d62728; stroke: #d62728"/>
     <use xlink:href="#me988ca7a32" x="346.090744" y="169.324265" style="fill: #d62728; stroke: #d62728"/>
     <use xlink:href="#me988ca7a32" x="372.05726" y="145.138037" style="fill: #d62728; stroke: #d62728"/>
    </g>
   </g>
   <g id="text_18">
    <!-- Uniform Active Knots -->
    <g transform="translate(126.851443 41.309584) scale(0.17 -0.17)">
     <defs>
      <path id="DejaVuSans-55" d="M 556 4666 
L 1191 4666 
L 1191 1831 
Q 1191 1081 1462 751 
Q 1734 422 2344 422 
Q 2950 422 3222 751 
Q 3494 1081 3494 1831 
L 3494 4666 
L 4128 4666 
L 4128 1753 
Q 4128 841 3676 375 
Q 3225 -91 2344 -91 
Q 1459 -91 1007 375 
Q 556 841 556 1753 
L 556 4666 
z
" transform="scale(0.015625)"/>
      <path id="DejaVuSans-6e" d="M 3513 2113 
L 3513 0 
L 2938 0 
L 2938 2094 
Q 2938 2591 2744 2837 
Q 2550 3084 2163 3084 
Q 1697 3084 1428 2787 
Q 1159 2491 1159 1978 
L 1159 0 
L 581 0 
L 581 3500 
L 1159 3500 
L 1159 2956 
Q 1366 3272 1645 3428 
Q 1925 3584 2291 3584 
Q 2894 3584 3203 3211 
Q 3513 2838 3513 2113 
z
" transform="scale(0.015625)"/>
      <path id="DejaVuSans-69" d="M 603 3500 
L 1178 3500 
L 1178 0 
L 603 0 
L 603 3500 
z
M 603 4863 
L 1178 4863 
L 1178 4134 
L 603 4134 
L 603 4863 
z
" transform="scale(0.015625)"/>
      <path id="DejaVuSans-66" d="M 2375 4863 
L 2375 4384 
L 1825 4384 
Q 1516 4384 1395 4259 
Q 1275 4134 1275 3809 
L 1275 3500 
L 2222 3500 
L 2222 3053 
L 1275 3053 
L 1275 0 
L 697 0 
L 697 3053 
L 147 3053 
L 147 3500 
L 697 3500 
L 697 3744 
Q 697 4328 969 4595 
Q 1241 4863 1831 4863 
L 2375 4863 
z
" transform="scale(0.015625)"/>
      <path id="DejaVuSans-6f" d="M 1959 3097 
Q 1497 3097 1228 2736 
Q 959 2375 959 1747 
Q 959 1119 1226 758 
Q 1494 397 1959 397 
Q 2419 397 2687 759 
Q 2956 1122 2956 1747 
Q 2956 2369 2687 2733 
Q 2419 3097 1959 3097 
z
M 1959 3584 
Q 2709 3584 3137 3096 
Q 3566 2609 3566 1747 
Q 3566 888 3137 398 
Q 2709 -91 1959 -91 
Q 1206 -91 779 398 
Q 353 888 353 1747 
Q 353 2609 779 3096 
Q 1206 3584 1959 3584 
z
" transform="scale(0.015625)"/>
      <path id="DejaVuSans-72" d="M 2631 2963 
Q 2534 3019 2420 3045 
Q 2306 3072 2169 3072 
Q 1681 3072 1420 2755 
Q 1159 2438 1159 1844 
L 1159 0 
L 581 0 
L 581 3500 
L 1159 3500 
L 1159 2956 
Q 1341 3275 1631 3429 
Q 1922 3584 2338 3584 
Q 2397 3584 2469 3576 
Q 2541 3569 2628 3553 
L 2631 2963 
z
" transform="scale(0.015625)"/>
      <path id="DejaVuSans-6d" d="M 3328 2828 
Q 3544 3216 3844 3400 
Q 4144 3584 4550 3584 
Q 5097 3584 5394 3201 
Q 5691 2819 5691 2113 
L 5691 0 
L 5113 0 
L 5113 2094 
Q 5113 2597 4934 2840 
Q 4756 3084 4391 3084 
Q 3944 3084 3684 2787 
Q 3425 2491 3425 1978 
L 3425 0 
L 2847 0 
L 2847 2094 
Q 2847 2600 2669 2842 
Q 2491 3084 2119 3084 
Q 1678 3084 1418 2786 
Q 1159 2488 1159 1978 
L 1159 0 
L 581 0 
L 581 3500 
L 1159 3500 
L 1159 2956 
Q 1356 3278 1631 3431 
Q 1906 3584 2284 3584 
Q 2666 3584 2933 3390 
Q 3200 3197 3328 2828 
z
" transform="scale(0.015625)"/>
      <path id="DejaVuSans-41" d="M 2188 4044 
L 1331 1722 
L 3047 1722 
L 2188 4044 
z
M 1831 4666 
L 2547 4666 
L 4325 0 
L 3669 0 
L 3244 1197 
L 1141 1197 
L 716 0 
L 50 0 
L 1831 4666 
z
" transform="scale(0.015625)"/>
      <path id="DejaVuSans-63" d="M 3122 3366 
L 3122 2828 
Q 2878 2963 2633 3030 
Q 2388 3097 2138 3097 
Q 1578 3097 1268 2742 
Q 959 2388 959 1747 
Q 959 1106 1268 751 
Q 1578 397 2138 397 
Q 2388 397 2633 464 
Q 2878 531 3122 666 
L 3122 134 
Q 2881 22 2623 -34 
Q 2366 -91 2075 -91 
Q 1284 -91 818 406 
Q 353 903 353 1747 
Q 353 2603 823 3093 
Q 1294 3584 2113 3584 
Q 2378 3584 2631 3529 
Q 2884 3475 3122 3366 
z
" transform="scale(0.015625)"/>
      <path id="DejaVuSans-76" d="M 191 3500 
L 800 3500 
L 1894 563 
L 2988 3500 
L 3597 3500 
L 2284 0 
L 1503 0 
L 191 3500 
z
" transform="scale(0.015625)"/>
      <path id="DejaVuSans-65" d="M 3597 1894 
L 3597 1613 
L 953 1613 
Q 991 1019 1311 708 
Q 1631 397 2203 397 
Q 2534 397 2845 478 
Q 3156 559 3463 722 
L 3463 178 
Q 3153 47 2828 -22 
Q 2503 -91 2169 -91 
Q 1331 -91 842 396 
Q 353 884 353 1716 
Q 353 2575 817 3079 
Q 1281 3584 2069 3584 
Q 2775 3584 3186 3129 
Q 3597 2675 3597 1894 
z
M 3022 2063 
Q 3016 2534 2758 2815 
Q 2500 3097 2075 3097 
Q 1594 3097 1305 2825 
Q 1016 2553 972 2059 
L 3022 2063 
z
" transform="scale(0.015625)"/>
      <path id="DejaVuSans-4b" d="M 628 4666 
L 1259 4666 
L 1259 2694 
L 3353 4666 
L 4166 4666 
L 1850 2491 
L 4331 0 
L 3500 0 
L 1259 2247 
L 1259 0 
L 628 0 
L 628 4666 
z
" transform="scale(0.015625)"/>
      <path id="DejaVuSans-73" d="M 2834 3397 
L 2834 2853 
Q 2591 2978 2328 3040 
Q 2066 3103 1784 3103 
Q 1356 3103 1142 2972 
Q 928 2841 928 2578 
Q 928 2378 1081 2264 
Q 1234 2150 1697 2047 
L 1894 2003 
Q 2506 1872 2764 1633 
Q 3022 1394 3022 966 
Q 3022 478 2636 193 
Q 2250 -91 1575 -91 
Q 1294 -91 989 -36 
Q 684 19 347 128 
L 347 722 
Q 666 556 975 473 
Q 1284 391 1588 391 
Q 1994 391 2212 530 
Q 2431 669 2431 922 
Q 2431 1156 2273 1281 
Q 2116 1406 1581 1522 
L 1381 1569 
Q 847 1681 609 1914 
Q 372 2147 372 2553 
Q 372 3047 722 3315 
Q 1072 3584 1716 3584 
Q 2034 3584 2315 3537 
Q 2597 3491 2834 3397 
z
" transform="scale(0.015625)"/>
     </defs>
     <use xlink:href="#DejaVuSans-55"/>
     <use xlink:href="#DejaVuSans-6e" transform="translate(73.193359 0)"/>
     <use xlink:href="#DejaVuSans-69" transform="translate(136.572266 0)"/>
     <use xlink:href="#DejaVuSans-66" transform="translate(164.355469 0)"/>
     <use xlink:href="#DejaVuSans-6f" transform="translate(199.560547 0)"/>
     <use xlink:href="#DejaVuSans-72" transform="translate(260.742188 0)"/>
     <use xlink:href="#DejaVuSans-6d" transform="translate(300.105469 0)"/>
     <use xlink:href="#DejaVuSans-20" transform="translate(397.517578 0)"/>
     <use xlink:href="#DejaVuSans-41" transform="translate(429.304688 0)"/>
     <use xlink:href="#DejaVuSans-63" transform="translate(495.962891 0)"/>
     <use xlink:href="#DejaVuSans-74" transform="translate(550.943359 0)"/>
     <use xlink:href="#DejaVuSans-69" transform="translate(590.152344 0)"/>
     <use xlink:href="#DejaVuSans-76" transform="translate(617.935547 0)"/>
     <use xlink:href="#DejaVuSans-65" transform="translate(677.115234 0)"/>
     <use xlink:href="#DejaVuSans-20" transform="translate(738.638672 0)"/>
     <use xlink:href="#DejaVuSans-4b" transform="translate(770.425781 0)"/>
     <use xlink:href="#DejaVuSans-6e" transform="translate(836.001953 0)"/>
     <use xlink:href="#DejaVuSans-6f" transform="translate(899.380859 0)"/>
     <use xlink:href="#DejaVuSans-74" transform="translate(960.5625 0)"/>
     <use xlink:href="#DejaVuSans-73" transform="translate(999.771484 0)"/>
    </g>
   </g>
   <g id="PathCollection_2">
    <defs>
     <path id="m272b54437b" d="M -0 4.582576 
L 4.582576 0 
L 0 -4.582576 
L -4.582576 -0 
z
" style="stroke: #000000; stroke-width: 1.2"/>
    </defs>
    <g clip-path="url(#pc0c7cec8ef)">
     <use xlink:href="#m272b54437b" x="60.459063" y="182.288083" style="fill: #ffffff; stroke: #000000; stroke-width: 1.2"/>
     <use xlink:href="#m272b54437b" x="95.081084" y="70.837946" style="fill: #ffffff; stroke: #000000; stroke-width: 1.2"/>
     <use xlink:href="#m272b54437b" x="164.325128" y="281.354871" style="fill: #ffffff; stroke: #000000; stroke-width: 1.2"/>
     <use xlink:href="#m272b54437b" x="268.191194" y="58.454597" style="fill: #ffffff; stroke: #000000; stroke-width: 1.2"/>
     <use xlink:href="#m272b54437b" x="337.435238" y="207.05478" style="fill: #ffffff; stroke: #000000; stroke-width: 1.2"/>
     <use xlink:href="#m272b54437b" x="372.05726" y="145.138037" style="fill: #ffffff; stroke: #000000; stroke-width: 1.2"/>
    </g>
   </g>
  </g>
  <g id="axes_2">
   <g id="patch_7">
    <path d="M 439.238823 292.499885 
L 750.83702 292.499885 
L 750.83702 47.309584 
L 439.238823 47.309584 
z
" style="fill: #ffffff"/>
   </g>
   <g id="matplotlib.axis_3">
    <g id="xtick_8">
     <g id="line2d_36">
      <path d="M 439.238823 292.499885 
L 439.238823 47.309584 
" clip-path="url(#p1b32fa56c7)" style="fill: none; stroke: #b0b0b0; stroke-opacity: 0.25; stroke-width: 0.8; stroke-linecap: square"/>
     </g>
     <g id="line2d_37">
      <g>
       <use xlink:href="#mcb7d51ba85" x="439.238823" y="292.499885" style="stroke: #000000; stroke-width: 0.8"/>
      </g>
     </g>
     <g id="text_19">
      <!-- 0 -->
      <g transform="translate(436.057573 307.098322) scale(0.1 -0.1)">
       <use xlink:href="#DejaVuSans-30"/>
      </g>
     </g>
    </g>
    <g id="xtick_9">
     <g id="line2d_38">
      <path d="M 491.171855 292.499885 
L 491.171855 47.309584 
" clip-path="url(#p1b32fa56c7)" style="fill: none; stroke: #b0b0b0; stroke-opacity: 0.25; stroke-width: 0.8; stroke-linecap: square"/>
     </g>
     <g id="line2d_39">
      <g>
       <use xlink:href="#mcb7d51ba85" x="491.171855" y="292.499885" style="stroke: #000000; stroke-width: 0.8"/>
      </g>
     </g>
     <g id="text_20">
      <!-- 2 -->
      <g transform="translate(487.990605 307.098322) scale(0.1 -0.1)">
       <use xlink:href="#DejaVuSans-32"/>
      </g>
     </g>
    </g>
    <g id="xtick_10">
     <g id="line2d_40">
      <path d="M 543.104888 292.499885 
L 543.104888 47.309584 
" clip-path="url(#p1b32fa56c7)" style="fill: none; stroke: #b0b0b0; stroke-opacity: 0.25; stroke-width: 0.8; stroke-linecap: square"/>
     </g>
     <g id="line2d_41">
      <g>
       <use xlink:href="#mcb7d51ba85" x="543.104888" y="292.499885" style="stroke: #000000; stroke-width: 0.8"/>
      </g>
     </g>
     <g id="text_21">
      <!-- 4 -->
      <g transform="translate(539.923638 307.098322) scale(0.1 -0.1)">
       <use xlink:href="#DejaVuSans-34"/>
      </g>
     </g>
    </g>
    <g id="xtick_11">
     <g id="line2d_42">
      <path d="M 595.037921 292.499885 
L 595.037921 47.309584 
" clip-path="url(#p1b32fa56c7)" style="fill: none; stroke: #b0b0b0; stroke-opacity: 0.25; stroke-width: 0.8; stroke-linecap: square"/>
     </g>
     <g id="line2d_43">
      <g>
       <use xlink:href="#mcb7d51ba85" x="595.037921" y="292.499885" style="stroke: #000000; stroke-width: 0.8"/>
      </g>
     </g>
     <g id="text_22">
      <!-- 6 -->
      <g transform="translate(591.856671 307.098322) scale(0.1 -0.1)">
       <use xlink:href="#DejaVuSans-36"/>
      </g>
     </g>
    </g>
    <g id="xtick_12">
     <g id="line2d_44">
      <path d="M 646.970954 292.499885 
L 646.970954 47.309584 
" clip-path="url(#p1b32fa56c7)" style="fill: none; stroke: #b0b0b0; stroke-opacity: 0.25; stroke-width: 0.8; stroke-linecap: square"/>
     </g>
     <g id="line2d_45">
      <g>
       <use xlink:href="#mcb7d51ba85" x="646.970954" y="292.499885" style="stroke: #000000; stroke-width: 0.8"/>
      </g>
     </g>
     <g id="text_23">
      <!-- 8 -->
      <g transform="translate(643.789704 307.098322) scale(0.1 -0.1)">
       <use xlink:href="#DejaVuSans-38"/>
      </g>
     </g>
    </g>
    <g id="xtick_13">
     <g id="line2d_46">
      <path d="M 698.903987 292.499885 
L 698.903987 47.309584 
" clip-path="url(#p1b32fa56c7)" style="fill: none; stroke: #b0b0b0; stroke-opacity: 0.25; stroke-width: 0.8; stroke-linecap: square"/>
     </g>
     <g id="line2d_47">
      <g>
       <use xlink:href="#mcb7d51ba85" x="698.903987" y="292.499885" style="stroke: #000000; stroke-width: 0.8"/>
      </g>
     </g>
     <g id="text_24">
      <!-- 10 -->
      <g transform="translate(692.541487 307.098322) scale(0.1 -0.1)">
       <use xlink:href="#DejaVuSans-31"/>
       <use xlink:href="#DejaVuSans-30" transform="translate(63.623047 0)"/>
      </g>
     </g>
    </g>
    <g id="xtick_14">
     <g id="line2d_48">
      <path d="M 750.83702 292.499885 
L 750.83702 47.309584 
" clip-path="url(#p1b32fa56c7)" style="fill: none; stroke: #b0b0b0; stroke-opacity: 0.25; stroke-width: 0.8; stroke-linecap: square"/>
     </g>
     <g id="line2d_49">
      <g>
       <use xlink:href="#mcb7d51ba85" x="750.83702" y="292.499885" style="stroke: #000000; stroke-width: 0.8"/>
      </g>
     </g>
     <g id="text_25">
      <!-- 12 -->
      <g transform="translate(744.47452 307.098322) scale(0.1 -0.1)">
       <use xlink:href="#DejaVuSans-31"/>
       <use xlink:href="#DejaVuSans-32" transform="translate(63.623047 0)"/>
      </g>
     </g>
    </g>
    <g id="text_26">
     <!-- t / k -->
     <g transform="translate(583.376359 322.296135) scale(0.12 -0.12)">
      <use xlink:href="#DejaVuSans-74"/>
      <use xlink:href="#DejaVuSans-20" transform="translate(39.208984 0)"/>
      <use xlink:href="#DejaVuSans-2f" transform="translate(70.996094 0)"/>
      <use xlink:href="#DejaVuSans-20" transform="translate(104.6875 0)"/>
      <use xlink:href="#DejaVuSans-6b" transform="translate(136.474609 0)"/>
     </g>
    </g>
   </g>
   <g id="matplotlib.axis_4">
    <g id="ytick_9">
     <g id="line2d_50">
      <path d="M 439.238823 275.163197 
L 750.83702 275.163197 
" clip-path="url(#p1b32fa56c7)" style="fill: none; stroke: #b0b0b0; stroke-opacity: 0.25; stroke-width: 0.8; stroke-linecap: square"/>
     </g>
     <g id="line2d_51">
      <g>
       <use xlink:href="#mf114ef7a4b" x="439.238823" y="275.163197" style="stroke: #000000; stroke-width: 0.8"/>
      </g>
     </g>
     <g id="text_27">
      <!-- −0.75 -->
      <g transform="translate(401.59351 278.962416) scale(0.1 -0.1)">
       <use xlink:href="#DejaVuSans-2212"/>
       <use xlink:href="#DejaVuSans-30" transform="translate(83.789062 0)"/>
       <use xlink:href="#DejaVuSans-2e" transform="translate(147.412109 0)"/>
       <use xlink:href="#DejaVuSans-37" transform="translate(179.199219 0)"/>
       <use xlink:href="#DejaVuSans-35" transform="translate(242.822266 0)"/>
      </g>
     </g>
    </g>
    <g id="ytick_10">
     <g id="line2d_52">
      <path d="M 439.238823 244.204826 
L 750.83702 244.204826 
" clip-path="url(#p1b32fa56c7)" style="fill: none; stroke: #b0b0b0; stroke-opacity: 0.25; stroke-width: 0.8; stroke-linecap: square"/>
     </g>
     <g id="line2d_53">
      <g>
       <use xlink:href="#mf114ef7a4b" x="439.238823" y="244.204826" style="stroke: #000000; stroke-width: 0.8"/>
      </g>
     </g>
     <g id="text_28">
      <!-- −0.50 -->
      <g transform="translate(401.59351 248.004044) scale(0.1 -0.1)">
       <use xlink:href="#DejaVuSans-2212"/>
       <use xlink:href="#DejaVuSans-30" transform="translate(83.789062 0)"/>
       <use xlink:href="#DejaVuSans-2e" transform="translate(147.412109 0)"/>
       <use xlink:href="#DejaVuSans-35" transform="translate(179.199219 0)"/>
       <use xlink:href="#DejaVuSans-30" transform="translate(242.822266 0)"/>
      </g>
     </g>
    </g>
    <g id="ytick_11">
     <g id="line2d_54">
      <path d="M 439.238823 213.246454 
L 750.83702 213.246454 
" clip-path="url(#p1b32fa56c7)" style="fill: none; stroke: #b0b0b0; stroke-opacity: 0.25; stroke-width: 0.8; stroke-linecap: square"/>
     </g>
     <g id="line2d_55">
      <g>
       <use xlink:href="#mf114ef7a4b" x="439.238823" y="213.246454" style="stroke: #000000; stroke-width: 0.8"/>
      </g>
     </g>
     <g id="text_29">
      <!-- −0.25 -->
      <g transform="translate(401.59351 217.045673) scale(0.1 -0.1)">
       <use xlink:href="#DejaVuSans-2212"/>
       <use xlink:href="#DejaVuSans-30" transform="translate(83.789062 0)"/>
       <use xlink:href="#DejaVuSans-2e" transform="translate(147.412109 0)"/>
       <use xlink:href="#DejaVuSans-32" transform="translate(179.199219 0)"/>
       <use xlink:href="#DejaVuSans-35" transform="translate(242.822266 0)"/>
      </g>
     </g>
    </g>
    <g id="ytick_12">
     <g id="line2d_56">
      <path d="M 439.238823 182.288083 
L 750.83702 182.288083 
" clip-path="url(#p1b32fa56c7)" style="fill: none; stroke: #b0b0b0; stroke-opacity: 0.25; stroke-width: 0.8; stroke-linecap: square"/>
     </g>
     <g id="line2d_57">
      <g>
       <use xlink:href="#mf114ef7a4b" x="439.238823" y="182.288083" style="stroke: #000000; stroke-width: 0.8"/>
      </g>
     </g>
     <g id="text_30">
      <!-- 0.00 -->
      <g transform="translate(409.973198 186.087302) scale(0.1 -0.1)">
       <use xlink:href="#DejaVuSans-30"/>
       <use xlink:href="#DejaVuSans-2e" transform="translate(63.623047 0)"/>
       <use xlink:href="#DejaVuSans-30" transform="translate(95.410156 0)"/>
       <use xlink:href="#DejaVuSans-30" transform="translate(159.033203 0)"/>
      </g>
     </g>
    </g>
    <g id="ytick_13">
     <g id="line2d_58">
      <path d="M 439.238823 151.329712 
L 750.83702 151.329712 
" clip-path="url(#p1b32fa56c7)" style="fill: none; stroke: #b0b0b0; stroke-opacity: 0.25; stroke-width: 0.8; stroke-linecap: square"/>
     </g>
     <g id="line2d_59">
      <g>
       <use xlink:href="#mf114ef7a4b" x="439.238823" y="151.329712" style="stroke: #000000; stroke-width: 0.8"/>
      </g>
     </g>
     <g id="text_31">
      <!-- 0.25 -->
      <g transform="translate(409.973198 155.12893) scale(0.1 -0.1)">
       <use xlink:href="#DejaVuSans-30"/>
       <use xlink:href="#DejaVuSans-2e" transform="translate(63.623047 0)"/>
       <use xlink:href="#DejaVuSans-32" transform="translate(95.410156 0)"/>
       <use xlink:href="#DejaVuSans-35" transform="translate(159.033203 0)"/>
      </g>
     </g>
    </g>
    <g id="ytick_14">
     <g id="line2d_60">
      <path d="M 439.238823 120.37134 
L 750.83702 120.37134 
" clip-path="url(#p1b32fa56c7)" style="fill: none; stroke: #b0b0b0; stroke-opacity: 0.25; stroke-width: 0.8; stroke-linecap: square"/>
     </g>
     <g id="line2d_61">
      <g>
       <use xlink:href="#mf114ef7a4b" x="439.238823" y="120.37134" style="stroke: #000000; stroke-width: 0.8"/>
      </g>
     </g>
     <g id="text_32">
      <!-- 0.50 -->
      <g transform="translate(409.973198 124.170559) scale(0.1 -0.1)">
       <use xlink:href="#DejaVuSans-30"/>
       <use xlink:href="#DejaVuSans-2e" transform="translate(63.623047 0)"/>
       <use xlink:href="#DejaVuSans-35" transform="translate(95.410156 0)"/>
       <use xlink:href="#DejaVuSans-30" transform="translate(159.033203 0)"/>
      </g>
     </g>
    </g>
    <g id="ytick_15">
     <g id="line2d_62">
      <path d="M 439.238823 89.412969 
L 750.83702 89.412969 
" clip-path="url(#p1b32fa56c7)" style="fill: none; stroke: #b0b0b0; stroke-opacity: 0.25; stroke-width: 0.8; stroke-linecap: square"/>
     </g>
     <g id="line2d_63">
      <g>
       <use xlink:href="#mf114ef7a4b" x="439.238823" y="89.412969" style="stroke: #000000; stroke-width: 0.8"/>
      </g>
     </g>
     <g id="text_33">
      <!-- 0.75 -->
      <g transform="translate(409.973198 93.212188) scale(0.1 -0.1)">
       <use xlink:href="#DejaVuSans-30"/>
       <use xlink:href="#DejaVuSans-2e" transform="translate(63.623047 0)"/>
       <use xlink:href="#DejaVuSans-37" transform="translate(95.410156 0)"/>
       <use xlink:href="#DejaVuSans-35" transform="translate(159.033203 0)"/>
      </g>
     </g>
    </g>
    <g id="ytick_16">
     <g id="line2d_64">
      <path d="M 439.238823 58.454597 
L 750.83702 58.454597 
" clip-path="url(#p1b32fa56c7)" style="fill: none; stroke: #b0b0b0; stroke-opacity: 0.25; stroke-width: 0.8; stroke-linecap: square"/>
     </g>
     <g id="line2d_65">
      <g>
       <use xlink:href="#mf114ef7a4b" x="439.238823" y="58.454597" style="stroke: #000000; stroke-width: 0.8"/>
      </g>
     </g>
     <g id="text_34">
      <!-- 1.00 -->
      <g transform="translate(409.973198 62.253816) scale(0.1 -0.1)">
       <use xlink:href="#DejaVuSans-31"/>
       <use xlink:href="#DejaVuSans-2e" transform="translate(63.623047 0)"/>
       <use xlink:href="#DejaVuSans-30" transform="translate(95.410156 0)"/>
       <use xlink:href="#DejaVuSans-30" transform="translate(159.033203 0)"/>
      </g>
     </g>
    </g>
    <g id="text_35">
     <!-- u -->
     <g transform="translate(395.097885 173.707234) rotate(-90) scale(0.12 -0.12)">
      <use xlink:href="#DejaVuSans-75"/>
     </g>
    </g>
   </g>
   <g id="line2d_66">
    <path d="M 439.238823 292.499885 
L 439.238823 47.309584 
" clip-path="url(#p1b32fa56c7)" style="fill: none; stroke-dasharray: 3.7,1.6; stroke-dashoffset: 0; stroke: #4c4c4c; stroke-opacity: 0.95"/>
   </g>
   <g id="line2d_67">
    <path d="M 478.188597 292.499885 
L 478.188597 47.309584 
" clip-path="url(#p1b32fa56c7)" style="fill: none; stroke-dasharray: 3.7,1.6; stroke-dashoffset: 0; stroke: #4c4c4c; stroke-opacity: 0.95"/>
   </g>
   <g id="line2d_68">
    <path d="M 517.138372 292.499885 
L 517.138372 47.309584 
" clip-path="url(#p1b32fa56c7)" style="fill: none; stroke-dasharray: 3.7,1.6; stroke-dashoffset: 0; stroke: #4c4c4c; stroke-opacity: 0.95"/>
   </g>
   <g id="line2d_69">
    <path d="M 750.83702 292.499885 
L 750.83702 47.309584 
" clip-path="url(#p1b32fa56c7)" style="fill: none; stroke-dasharray: 3.7,1.6; stroke-dashoffset: 0; stroke: #4c4c4c; stroke-opacity: 0.95"/>
   </g>
   <g id="line2d_70">
    <path d="M 439.238823 182.288083 
L 440.798373 169.92478 
L 442.357924 159.536945 
L 443.605564 152.575696 
L 444.853204 146.753061 
L 446.100845 142.013178 
L 447.348485 138.300188 
L 448.284216 136.15574 
L 449.219946 134.533931 
L 450.155676 133.411196 
L 450.779496 132.928331 
L 451.403317 132.64982 
L 452.027137 132.568681 
L 452.650957 132.677931 
L 453.274777 132.970587 
L 454.210508 133.738183 
L 455.146238 134.879167 
L 456.081968 136.369972 
L 457.329609 138.861148 
L 458.577249 141.876472 
L 460.1368 146.297612 
L 462.00826 152.41521 
L 464.191631 160.434019 
L 466.998822 171.678147 
L 474.484665 202.192276 
L 476.668035 209.974709 
L 478.539496 215.824111 
L 480.099047 220.016954 
L 481.658597 223.60425 
L 483.218148 226.614335 
L 484.777698 229.075547 
L 486.025339 230.66837 
L 487.272979 231.942558 
L 488.52062 232.912621 
L 489.76826 233.593066 
L 491.0159 233.998403 
L 492.263541 234.14314 
L 493.511181 234.041785 
L 494.758822 233.708848 
L 496.006462 233.158836 
L 497.566013 232.188164 
L 499.125563 230.929321 
L 500.997024 229.078221 
L 502.868484 226.901926 
L 505.051855 224.017232 
L 507.547136 220.359805 
L 510.978147 214.908052 
L 520.33545 199.786791 
L 524.078372 194.291869 
L 527.821293 189.165325 
L 531.564214 184.39627 
L 535.307136 179.973814 
L 539.050057 175.887069 
L 542.792978 172.125145 
L 546.5359 168.677152 
L 550.278821 165.532203 
L 554.021742 162.679406 
L 557.764663 160.107874 
L 561.507585 157.806717 
L 565.250506 155.765045 
L 568.993427 153.97197 
L 572.736349 152.416601 
L 576.47927 151.088051 
L 580.534101 149.892116 
L 584.588933 148.935752 
L 588.643764 148.205115 
L 593.010506 147.654835 
L 597.377247 147.332996 
L 602.055899 147.222024 
L 606.73455 147.332174 
L 611.725112 147.669431 
L 617.027584 148.248047 
L 622.953876 149.125959 
L 629.503988 150.329952 
L 637.301741 152.004674 
L 647.906684 154.534828 
L 665.997471 158.867014 
L 673.795223 160.485593 
L 680.345336 161.623884 
L 686.271628 162.427763 
L 691.5741 162.928394 
L 696.564661 163.182117 
L 701.243313 163.205029 
L 705.921965 162.998181 
L 710.288706 162.579066 
L 714.343537 161.978971 
L 718.398369 161.161571 
L 722.4532 160.113022 
L 726.508032 158.819478 
L 730.250953 157.396015 
L 733.993874 155.741113 
L 737.736795 153.843884 
L 741.479717 151.693437 
L 745.222638 149.278885 
L 748.965559 146.589337 
L 750.83702 145.138037 
L 750.83702 145.138037 
" clip-path="url(#p1b32fa56c7)" style="fill: none; stroke: #1f77b4; stroke-width: 2; stroke-linecap: square"/>
   </g>
   <g id="patch_8">
    <path d="M 439.238823 292.499885 
L 439.238823 47.309584 
" style="fill: none; stroke: #000000; stroke-width: 0.8; stroke-linejoin: miter; stroke-linecap: square"/>
   </g>
   <g id="patch_9">
    <path d="M 750.83702 292.499885 
L 750.83702 47.309584 
" style="fill: none; stroke: #000000; stroke-width: 0.8; stroke-linejoin: miter; stroke-linecap: square"/>
   </g>
   <g id="patch_10">
    <path d="M 439.238823 292.499885 
L 750.83702 292.499885 
" style="fill: none; stroke: #000000; stroke-width: 0.8; stroke-linejoin: miter; stroke-linecap: square"/>
   </g>
   <g id="patch_11">
    <path d="M 439.238823 47.309584 
L 750.83702 47.309584 
" style="fill: none; stroke: #000000; stroke-width: 0.8; stroke-linejoin: miter; stroke-linecap: square"/>
   </g>
   <g id="PathCollection_3">
    <g clip-path="url(#p1b32fa56c7)">
     <use xlink:href="#me988ca7a32" x="439.238823" y="182.288083" style="fill: #d62728; stroke: #d62728"/>
     <use xlink:href="#me988ca7a32" x="465.205339" y="164.401024" style="fill: #d62728; stroke: #d62728"/>
     <use xlink:href="#me988ca7a32" x="491.171855" y="234.030449" style="fill: #d62728; stroke: #d62728"/>
     <use xlink:href="#me988ca7a32" x="517.138372" y="204.780287" style="fill: #d62728; stroke: #d62728"/>
     <use xlink:href="#me988ca7a32" x="543.104888" y="171.825972" style="fill: #d62728; stroke: #d62728"/>
     <use xlink:href="#me988ca7a32" x="569.071405" y="153.937179" style="fill: #d62728; stroke: #d62728"/>
     <use xlink:href="#me988ca7a32" x="595.037921" y="147.47805" style="fill: #d62728; stroke: #d62728"/>
     <use xlink:href="#me988ca7a32" x="621.004438" y="148.812724" style="fill: #d62728; stroke: #d62728"/>
     <use xlink:href="#me988ca7a32" x="646.970954" y="154.305341" style="fill: #d62728; stroke: #d62728"/>
     <use xlink:href="#me988ca7a32" x="672.937471" y="160.320041" style="fill: #d62728; stroke: #d62728"/>
     <use xlink:href="#me988ca7a32" x="698.903987" y="163.220964" style="fill: #d62728; stroke: #d62728"/>
     <use xlink:href="#me988ca7a32" x="724.870504" y="159.372249" style="fill: #d62728; stroke: #d62728"/>
     <use xlink:href="#me988ca7a32" x="750.83702" y="145.138037" style="fill: #d62728; stroke: #d62728"/>
    </g>
   </g>
   <g id="text_36">
    <!-- Custom Active Knots -->
    <g transform="translate(506.855734 41.309584) scale(0.17 -0.17)">
     <defs>
      <path id="DejaVuSans-43" d="M 4122 4306 
L 4122 3641 
Q 3803 3938 3442 4084 
Q 3081 4231 2675 4231 
Q 1875 4231 1450 3742 
Q 1025 3253 1025 2328 
Q 1025 1406 1450 917 
Q 1875 428 2675 428 
Q 3081 428 3442 575 
Q 3803 722 4122 1019 
L 4122 359 
Q 3791 134 3420 21 
Q 3050 -91 2638 -91 
Q 1578 -91 968 557 
Q 359 1206 359 2328 
Q 359 3453 968 4101 
Q 1578 4750 2638 4750 
Q 3056 4750 3426 4639 
Q 3797 4528 4122 4306 
z
" transform="scale(0.015625)"/>
     </defs>
     <use xlink:href="#DejaVuSans-43"/>
     <use xlink:href="#DejaVuSans-75" transform="translate(69.824219 0)"/>
     <use xlink:href="#DejaVuSans-73" transform="translate(133.203125 0)"/>
     <use xlink:href="#DejaVuSans-74" transform="translate(185.302734 0)"/>
     <use xlink:href="#DejaVuSans-6f" transform="translate(224.511719 0)"/>
     <use xlink:href="#DejaVuSans-6d" transform="translate(285.693359 0)"/>
     <use xlink:href="#DejaVuSans-20" transform="translate(383.105469 0)"/>
     <use xlink:href="#DejaVuSans-41" transform="translate(414.892578 0)"/>
     <use xlink:href="#DejaVuSans-63" transform="translate(481.550781 0)"/>
     <use xlink:href="#DejaVuSans-74" transform="translate(536.53125 0)"/>
     <use xlink:href="#DejaVuSans-69" transform="translate(575.740234 0)"/>
     <use xlink:href="#DejaVuSans-76" transform="translate(603.523438 0)"/>
     <use xlink:href="#DejaVuSans-65" transform="translate(662.703125 0)"/>
     <use xlink:href="#DejaVuSans-20" transform="translate(724.226562 0)"/>
     <use xlink:href="#DejaVuSans-4b" transform="translate(756.013672 0)"/>
     <use xlink:href="#DejaVuSans-6e" transform="translate(821.589844 0)"/>
     <use xlink:href="#DejaVuSans-6f" transform="translate(884.96875 0)"/>
     <use xlink:href="#DejaVuSans-74" transform="translate(946.150391 0)"/>
     <use xlink:href="#DejaVuSans-73" transform="translate(985.359375 0)"/>
    </g>
   </g>
   <g id="PathCollection_4">
    <g clip-path="url(#p1b32fa56c7)">
     <use xlink:href="#m272b54437b" x="439.238823" y="182.288083" style="fill: #ffffff; stroke: #000000; stroke-width: 1.2"/>
     <use xlink:href="#m272b54437b" x="452.222081" y="70.837946" style="fill: #ffffff; stroke: #000000; stroke-width: 1.2"/>
     <use xlink:href="#m272b54437b" x="478.188597" y="281.354871" style="fill: #ffffff; stroke: #000000; stroke-width: 1.2"/>
     <use xlink:href="#m272b54437b" x="582.054663" y="58.454597" style="fill: #ffffff; stroke: #000000; stroke-width: 1.2"/>
     <use xlink:href="#m272b54437b" x="672.937471" y="207.05478" style="fill: #ffffff; stroke: #000000; stroke-width: 1.2"/>
     <use xlink:href="#m272b54437b" x="750.83702" y="145.138037" style="fill: #ffffff; stroke: #000000; stroke-width: 1.2"/>
    </g>
   </g>
  </g>
  <g id="legend_1">
   <g id="line2d_71">
    <path d="M 94.213823 16.92 
L 106.213823 16.92 
L 118.213823 16.92 
" style="fill: none; stroke-dasharray: 3.7,1.6; stroke-dashoffset: 0; stroke: #4c4c4c; stroke-opacity: 0.95"/>
   </g>
   <g id="text_37">
    <!-- active knots -->
    <g transform="translate(127.813823 21.12) scale(0.12 -0.12)">
     <defs>
      <path id="DejaVuSans-61" d="M 2194 1759 
Q 1497 1759 1228 1600 
Q 959 1441 959 1056 
Q 959 750 1161 570 
Q 1363 391 1709 391 
Q 2188 391 2477 730 
Q 2766 1069 2766 1631 
L 2766 1759 
L 2194 1759 
z
M 3341 1997 
L 3341 0 
L 2766 0 
L 2766 531 
Q 2569 213 2275 61 
Q 1981 -91 1556 -91 
Q 1019 -91 701 211 
Q 384 513 384 1019 
Q 384 1609 779 1909 
Q 1175 2209 1959 2209 
L 2766 2209 
L 2766 2266 
Q 2766 2663 2505 2880 
Q 2244 3097 1772 3097 
Q 1472 3097 1187 3025 
Q 903 2953 641 2809 
L 641 3341 
Q 956 3463 1253 3523 
Q 1550 3584 1831 3584 
Q 2591 3584 2966 3190 
Q 3341 2797 3341 1997 
z
" transform="scale(0.015625)"/>
     </defs>
     <use xlink:href="#DejaVuSans-61"/>
     <use xlink:href="#DejaVuSans-63" transform="translate(61.279297 0)"/>
     <use xlink:href="#DejaVuSans-74" transform="translate(116.259766 0)"/>
     <use xlink:href="#DejaVuSans-69" transform="translate(155.46875 0)"/>
     <use xlink:href="#DejaVuSans-76" transform="translate(183.251953 0)"/>
     <use xlink:href="#DejaVuSans-65" transform="translate(242.431641 0)"/>
     <use xlink:href="#DejaVuSans-20" transform="translate(303.955078 0)"/>
     <use xlink:href="#DejaVuSans-6b" transform="translate(335.742188 0)"/>
     <use xlink:href="#DejaVuSans-6e" transform="translate(393.652344 0)"/>
     <use xlink:href="#DejaVuSans-6f" transform="translate(457.03125 0)"/>
     <use xlink:href="#DejaVuSans-74" transform="translate(518.212891 0)"/>
     <use xlink:href="#DejaVuSans-73" transform="translate(557.421875 0)"/>
    </g>
   </g>
   <g id="line2d_72">
    <path d="M 224.955698 16.92 
L 236.955698 16.92 
L 248.955698 16.92 
" style="fill: none; stroke: #1f77b4; stroke-width: 2; stroke-linecap: square"/>
   </g>
   <g id="text_38">
    <!-- continuous spline -->
    <g transform="translate(258.555698 21.12) scale(0.12 -0.12)">
     <defs>
      <path id="DejaVuSans-70" d="M 1159 525 
L 1159 -1331 
L 581 -1331 
L 581 3500 
L 1159 3500 
L 1159 2969 
Q 1341 3281 1617 3432 
Q 1894 3584 2278 3584 
Q 2916 3584 3314 3078 
Q 3713 2572 3713 1747 
Q 3713 922 3314 415 
Q 2916 -91 2278 -91 
Q 1894 -91 1617 61 
Q 1341 213 1159 525 
z
M 3116 1747 
Q 3116 2381 2855 2742 
Q 2594 3103 2138 3103 
Q 1681 3103 1420 2742 
Q 1159 2381 1159 1747 
Q 1159 1113 1420 752 
Q 1681 391 2138 391 
Q 2594 391 2855 752 
Q 3116 1113 3116 1747 
z
" transform="scale(0.015625)"/>
      <path id="DejaVuSans-6c" d="M 603 4863 
L 1178 4863 
L 1178 0 
L 603 0 
L 603 4863 
z
" transform="scale(0.015625)"/>
     </defs>
     <use xlink:href="#DejaVuSans-63"/>
     <use xlink:href="#DejaVuSans-6f" transform="translate(54.980469 0)"/>
     <use xlink:href="#DejaVuSans-6e" transform="translate(116.162109 0)"/>
     <use xlink:href="#DejaVuSans-74" transform="translate(179.541016 0)"/>
     <use xlink:href="#DejaVuSans-69" transform="translate(218.75 0)"/>
     <use xlink:href="#DejaVuSans-6e" transform="translate(246.533203 0)"/>
     <use xlink:href="#DejaVuSans-75" transform="translate(309.912109 0)"/>
     <use xlink:href="#DejaVuSans-6f" transform="translate(373.291016 0)"/>
     <use xlink:href="#DejaVuSans-75" transform="translate(434.472656 0)"/>
     <use xlink:href="#DejaVuSans-73" transform="translate(497.851562 0)"/>
     <use xlink:href="#DejaVuSans-20" transform="translate(549.951172 0)"/>
     <use xlink:href="#DejaVuSans-73" transform="translate(581.738281 0)"/>
     <use xlink:href="#DejaVuSans-70" transform="translate(633.837891 0)"/>
     <use xlink:href="#DejaVuSans-6c" transform="translate(697.314453 0)"/>
     <use xlink:href="#DejaVuSans-69" transform="translate(725.097656 0)"/>
     <use xlink:href="#DejaVuSans-6e" transform="translate(752.880859 0)"/>
     <use xlink:href="#DejaVuSans-65" transform="translate(816.259766 0)"/>
    </g>
   </g>
   <g id="PathCollection_5">
    <g>
     <use xlink:href="#me988ca7a32" x="399.887573" y="17.97" style="fill: #d62728; stroke: #d62728"/>
    </g>
   </g>
   <g id="text_39">
    <!-- sampled inputs $u_k$ -->
    <g transform="translate(421.487573 21.12) scale(0.12 -0.12)">
     <defs>
      <path id="DejaVuSans-64" d="M 2906 2969 
L 2906 4863 
L 3481 4863 
L 3481 0 
L 2906 0 
L 2906 525 
Q 2725 213 2448 61 
Q 2172 -91 1784 -91 
Q 1150 -91 751 415 
Q 353 922 353 1747 
Q 353 2572 751 3078 
Q 1150 3584 1784 3584 
Q 2172 3584 2448 3432 
Q 2725 3281 2906 2969 
z
M 947 1747 
Q 947 1113 1208 752 
Q 1469 391 1925 391 
Q 2381 391 2643 752 
Q 2906 1113 2906 1747 
Q 2906 2381 2643 2742 
Q 2381 3103 1925 3103 
Q 1469 3103 1208 2742 
Q 947 2381 947 1747 
z
" transform="scale(0.015625)"/>
      <path id="DejaVuSans-Oblique-75" d="M 428 1388 
L 838 3500 
L 1416 3500 
L 1006 1409 
Q 975 1256 961 1147 
Q 947 1038 947 966 
Q 947 700 1109 554 
Q 1272 409 1569 409 
Q 2031 409 2368 721 
Q 2706 1034 2809 1563 
L 3194 3500 
L 3769 3500 
L 3091 0 
L 2516 0 
L 2631 550 
Q 2388 244 2052 76 
Q 1716 -91 1338 -91 
Q 878 -91 622 161 
Q 366 413 366 863 
Q 366 956 381 1097 
Q 397 1238 428 1388 
z
" transform="scale(0.015625)"/>
      <path id="DejaVuSans-Oblique-6b" d="M 1172 4863 
L 1747 4863 
L 1197 2028 
L 3169 3500 
L 3916 3500 
L 1716 1825 
L 3322 0 
L 2625 0 
L 1131 1709 
L 800 0 
L 225 0 
L 1172 4863 
z
" transform="scale(0.015625)"/>
     </defs>
     <use xlink:href="#DejaVuSans-73" transform="translate(0 0.015625)"/>
     <use xlink:href="#DejaVuSans-61" transform="translate(52.099609 0.015625)"/>
     <use xlink:href="#DejaVuSans-6d" transform="translate(113.378906 0.015625)"/>
     <use xlink:href="#DejaVuSans-70" transform="translate(210.791016 0.015625)"/>
     <use xlink:href="#DejaVuSans-6c" transform="translate(274.267578 0.015625)"/>
     <use xlink:href="#DejaVuSans-65" transform="translate(302.050781 0.015625)"/>
     <use xlink:href="#DejaVuSans-64" transform="translate(363.574219 0.015625)"/>
     <use xlink:href="#DejaVuSans-20" transform="translate(427.050781 0.015625)"/>
     <use xlink:href="#DejaVuSans-69" transform="translate(458.837891 0.015625)"/>
     <use xlink:href="#DejaVuSans-6e" transform="translate(486.621094 0.015625)"/>
     <use xlink:href="#DejaVuSans-70" transform="translate(550 0.015625)"/>
     <use xlink:href="#DejaVuSans-75" transform="translate(613.476562 0.015625)"/>
     <use xlink:href="#DejaVuSans-74" transform="translate(676.855469 0.015625)"/>
     <use xlink:href="#DejaVuSans-73" transform="translate(716.064453 0.015625)"/>
     <use xlink:href="#DejaVuSans-20" transform="translate(768.164062 0.015625)"/>
     <use xlink:href="#DejaVuSans-Oblique-75" transform="translate(799.951172 0.015625)"/>
     <use xlink:href="#DejaVuSans-Oblique-6b" transform="translate(863.330078 -16.390625) scale(0.7)"/>
    </g>
   </g>
   <g id="PathCollection_6">
    <g>
     <use xlink:href="#m272b54437b" x="566.327573" y="17.97" style="fill: #ffffff; stroke: #000000; stroke-width: 1.2"/>
    </g>
   </g>
   <g id="text_40">
    <!-- control points -->
    <g transform="translate(587.927573 21.12) scale(0.12 -0.12)">
     <use xlink:href="#DejaVuSans-63"/>
     <use xlink:href="#DejaVuSans-6f" transform="translate(54.980469 0)"/>
     <use xlink:href="#DejaVuSans-6e" transform="translate(116.162109 0)"/>
     <use xlink:href="#DejaVuSans-74" transform="translate(179.541016 0)"/>
     <use xlink:href="#DejaVuSans-72" transform="translate(218.75 0)"/>
     <use xlink:href="#DejaVuSans-6f" transform="translate(257.613281 0)"/>
     <use xlink:href="#DejaVuSans-6c" transform="translate(318.794922 0)"/>
     <use xlink:href="#DejaVuSans-20" transform="translate(346.578125 0)"/>
     <use xlink:href="#DejaVuSans-70" transform="translate(378.365234 0)"/>
     <use xlink:href="#DejaVuSans-6f" transform="translate(441.841797 0)"/>
     <use xlink:href="#DejaVuSans-69" transform="translate(503.023438 0)"/>
     <use xlink:href="#DejaVuSans-6e" transform="translate(530.806641 0)"/>
     <use xlink:href="#DejaVuSans-74" transform="translate(594.185547 0)"/>
     <use xlink:href="#DejaVuSans-73" transform="translate(633.394531 0)"/>
    </g>
   </g>
  </g>
 </g>
 <defs>
  <clipPath id="pc0c7cec8ef">
   <rect x="60.459063" y="47.309584" width="311.598198" height="245.190301"/>
  </clipPath>
  <clipPath id="p1b32fa56c7">
   <rect x="439.238823" y="47.309584" width="311.598197" height="245.190301"/>
  </clipPath>
 </defs>
</svg>
